<svg width="78" height="42" viewBox="0 0 78 42" fill="none" xmlns="http://www.w3.org/2000/svg">
<path d="M1.22 41V16.37H13.01V41H1.22ZM7.25 13.64C5.49 13.64 3.99 13.02 2.75 11.78C1.53 10.52 0.92 9.03 0.92 7.31C0.92 5.59 1.53 4.1 2.75 2.84C3.99 1.56 5.49 0.919997 7.25 0.919997C8.41 0.919997 9.47 1.21 10.43 1.79C11.39 2.37 12.16 3.14 12.74 4.1C13.34 5.06 13.64 6.13 13.64 7.31C13.64 9.03 13.01 10.52 11.75 11.78C10.51 13.02 9.01 13.64 7.25 13.64ZM39.0008 29.63L33.6308 41H23.1908L14.0408 16.37H26.5508L30.1208 28.43L35.4308 16.85H42.6008L47.8208 28.43L51.4208 16.37H63.9608L54.8408 41H44.4308L39.0008 29.63ZM71.2714 41.72C69.5114 41.72 68.0014 41.09 66.7414 39.83C65.4814 38.57 64.8514 37.06 64.8514 35.3C64.8514 33.52 65.4814 32 66.7414 30.74C68.0014 29.48 69.5114 28.85 71.2714 28.85C73.0514 28.85 74.5714 29.48 75.8314 30.74C77.0914 32 77.7214 33.52 77.7214 35.3C77.7214 37.06 77.0914 38.57 75.8314 39.83C74.5714 41.09 73.0514 41.72 71.2714 41.72Z" fill="black"/>
</svg>
