<svg width="180" height="183" viewBox="0 0 180 183" fill="none" xmlns="http://www.w3.org/2000/svg">
<g filter="url(#filter0_d_15_173)">
<path d="M56.115 0.799998V47H45.685V19.805L46.14 12.07L44.355 20.925L36.585 43.29H26.33L18.595 20.925L16.845 12.07L17.3 19.805V47H6.835V0.799998H21.535L30.845 31.635L31.475 35.31L32.105 31.635L41.415 0.799998H56.115ZM64.4636 0.799998H93.9686V9.97H74.8936V19.385H93.7936V28.275H74.8936V37.83H93.9686V47H64.4636V0.799998ZM101.856 0.799998H131.361V9.97H112.286V19.385H131.186V28.275H112.286V37.83H131.361V47H101.856V0.799998ZM147.859 9.97H136.834V0.799998H169.314V9.97H158.324V47H147.859V9.97ZM15.515 73.97H4.49V64.8H36.97V73.97H25.98V111H15.515V73.97ZM68.9786 92.415H53.0186V111H42.5886V64.8H53.0186V83.28H68.9786V64.8H79.3736V111H68.9786V92.415ZM87.2956 64.8H116.801V73.97H97.7256V83.385H116.626V92.275H97.7256V101.83H116.801V111H87.2956V64.8Z" fill="black"/>
<path d="M15.515 137.97H4.49V128.8H36.97V137.97H25.98V175H15.515V137.97ZM42.5886 128.8H72.0936V137.97H53.0186V147.385H71.9186V156.275H53.0186V165.83H72.0936V175H42.5886V128.8ZM93.6623 128.8H104.057L122.292 175H111.127L107.767 165.725H89.9873L86.5923 175H75.3923L93.6623 128.8ZM93.4873 156.555H104.302L98.9473 141.4H98.8423L93.4873 156.555ZM175.197 128.8V175H164.767V147.805L165.222 140.07L163.437 148.925L155.667 171.29H145.412L137.677 148.925L135.927 140.07L136.382 147.805V175H125.917V128.8H140.617L149.927 159.635L150.557 163.31L151.187 159.635L160.497 128.8H175.197Z" fill="#E36414"/>
</g>
<defs>
<filter id="filter0_d_15_173" x="0.48999" y="0.799805" width="178.707" height="182.2" filterUnits="userSpaceOnUse" color-interpolation-filters="sRGB">
<feFlood flood-opacity="0" result="BackgroundImageFix"/>
<feColorMatrix in="SourceAlpha" type="matrix" values="0 0 0 0 0 0 0 0 0 0 0 0 0 0 0 0 0 0 127 0" result="hardAlpha"/>
<feOffset dy="4"/>
<feGaussianBlur stdDeviation="2"/>
<feComposite in2="hardAlpha" operator="out"/>
<feColorMatrix type="matrix" values="0 0 0 0 0 0 0 0 0 0 0 0 0 0 0 0 0 0 0.25 0"/>
<feBlend mode="normal" in2="BackgroundImageFix" result="effect1_dropShadow_15_173"/>
<feBlend mode="normal" in="SourceGraphic" in2="effect1_dropShadow_15_173" result="shape"/>
</filter>
</defs>
</svg>
